<?xml version="1.0" encoding="utf-8"?>
<!-- Generator: Adobe Illustrator 18.1.1, SVG Export Plug-In . SVG Version: 6.00 Build 0)  -->
<svg version="1.1" id="Laag_1" xmlns="http://www.w3.org/2000/svg" xmlns:xlink="http://www.w3.org/1999/xlink" x="0px" y="0px"
	 viewBox="0 0 842 595" enable-background="new 0 0 842 595" xml:space="preserve">
<radialGradient id="SVGID_1_" cx="189.1205" cy="290.5456" r="127.2338" gradientUnits="userSpaceOnUse">
	<stop  offset="0" style="stop-color:#FFFFFF"/>
	<stop  offset="8.309346e-002" style="stop-color:#DADADA"/>
	<stop  offset="0.2065" style="stop-color:#AAA9A9"/>
	<stop  offset="0.3331" style="stop-color:#817F7E"/>
	<stop  offset="0.4609" style="stop-color:#5F5D5C"/>
	<stop  offset="0.5902" style="stop-color:#454341"/>
	<stop  offset="0.7216" style="stop-color:#33302E"/>
	<stop  offset="0.8565" style="stop-color:#282523"/>
	<stop  offset="1" style="stop-color:#24211F"/>
</radialGradient>
<path fill-rule="evenodd" clip-rule="evenodd" fill="url(#SVGID_1_)" stroke="#4D4D4D" stroke-width="2.8346" stroke-miterlimit="22.9256" d="
	M189.1,380.5c49.6,0,90-40.4,90-90c0-49.6-40.4-90-90-90s-90,40.4-90,90C99.2,340.1,139.6,380.5,189.1,380.5z"/>
<path fill-rule="evenodd" clip-rule="evenodd" fill="#FFFFFF" stroke="#FFFFFF" stroke-width="0.5669" stroke-miterlimit="22.9256" d="
	M179.7,356c0.1,25.5-120.1-56.4-4.8-51.2c1.6,0.1,3.6,0.6,4.6,1.7l0.1,16.3L179.7,356z"/>
<path fill-rule="evenodd" clip-rule="evenodd" fill="#FFFFFF" stroke="#FFFFFF" stroke-width="0.5669" stroke-miterlimit="22.9256" d="
	M198.8,355.8c-0.1,25.5,120.1-56.4,4.8-51.2c-1.6,0.1-3.6,0.6-4.6,1.7L198.8,355.8z"/>
<path fill-rule="evenodd" clip-rule="evenodd" fill="#FFFFFF" stroke="#FFFFFF" stroke-width="0.5669" stroke-miterlimit="22.9256" d="
	M254.9,286c-3,0-6.4,2.1-9.4,2.1c-3,0-5.5-2.1-8.5-2.1c-3,0-6,0-9,0c-12.4,0-24.8,0-37.2,0.1v-0.5c-12.4,0-24.7,0-37.1-0.1
	c-3,0-6,0-9,0s-6,2.8-9,2.8s-6-2.8-9-2.8c-1.6,0-8.6-2.4-8.5-4c0.4-4.5,0.7-5.6,1.9-9.8c1.2-4.5,2.8-8.8,4.8-12.8
	c2-4.1,4.4-8,7-11.6c2.7-3.6,5.7-7,9-10c3.3-3.1,6.9-5.8,10.7-8.3c3.8-2.4,7.9-4.5,12.1-6.2c4.2-1.7,8.7-3,13.3-3.9
	c4.5-0.9,9.1-1.3,13.9-1.4v0.5c4.7,0,9.3,0.5,13.7,1.4c4.6,0.9,9,2.2,13.3,3.9c4.2,1.7,8.3,3.8,12.1,6.2c3.8,2.4,7.4,5.2,10.7,8.3
	c3.3,3.1,6.3,6.4,9,10c2.7,3.6,5,7.5,7,11.6c2,4.1,3.6,8.4,4.8,12.8c1.1,4.2,1.5,5.3,1.9,9.8C263.5,283.6,256.5,286,254.9,286z"/>
<path fill-rule="evenodd" clip-rule="evenodd" fill="#FFFFFF" stroke="#FFFFFF" stroke-width="0.5669" stroke-miterlimit="22.9256" d="
	M593.3,403.8c-0.1,25.5,120.1-56.4,4.8-51.2c-1.6,0.1-3.6,0.6-4.6,1.7L593.3,403.8z"/>
<path fill-rule="evenodd" clip-rule="evenodd" fill="#FFFFFF" stroke="#FFFFFF" stroke-width="0.5669" stroke-miterlimit="22.9256" d="
	M615.1,396.1c-0.1,25.5,120.1-56.4,4.8-51.2c-1.6,0.1-3.6,0.6-4.6,1.7L615.1,396.1z"/>
</svg>
